<svg id="svg" xmlns="http://www.w3.org/2000/svg" xmlns:xlink="http://www.w3.org/1999/xlink" width="400" height="377.5280898876404" viewBox="0, 0, 400,377.5280898876404"><g id="svgg"><path id="path0" d="M96.626 41.352 C 93.474 44.834,95.761 46.968,106.660 50.717 C 196.428 81.596,231.982 191.627,178.145 271.948 C 160.732 297.927,133.927 318.555,105.601 327.774 C 96.897 330.607,94.384 332.825,96.148 336.119 C 97.627 338.884,102.060 338.496,112.174 334.719 C 168.206 313.790,207.331 261.101,211.877 200.449 L 212.584 191.011 228.539 190.766 L 244.494 190.520 244.494 197.738 C 244.494 242.578,218.116 295.225,180.000 326.460 C 168.539 335.853,171.863 341.030,186.229 336.162 C 306.944 295.262,328.322 130.469,222.147 59.300 C 189.583 37.473,157.245 33.043,182.439 53.861 C 216.928 82.360,241.099 128.937,244.049 172.584 C 244.333 176.787,244.757 181.742,244.990 183.596 L 245.415 186.966 228.911 186.966 L 212.408 186.966 211.824 177.428 C 208.104 116.623,166.523 61.511,110.128 42.640 C 99.342 39.030,98.776 38.976,96.626 41.352 M216.923 66.371 C 285.587 111.999,303.024 207.691,254.868 274.607 C 242.452 291.859,228.726 304.500,210.214 315.730 C 197.859 323.226,196.952 323.288,203.699 316.180 C 270.280 246.033,269.855 132.166,202.745 60.304 L 198.202 55.440 203.733 58.361 C 206.775 59.967,212.710 63.571,216.923 66.371 M136.629 84.301 C 136.629 85.183,138.916 87.827,141.711 90.178 C 200.180 139.337,201.173 233.914,143.767 286.001 C 139.841 289.563,136.629 293.008,136.629 293.655 C 136.629 299.885,156.659 280.575,167.844 263.563 C 204.006 208.555,195.915 137.056,148.363 91.414 C 139.419 82.830,136.629 81.139,136.629 84.301 M263.999 184.971 C 263.159 185.899,262.472 187.932,262.472 189.488 C 262.472 195.485,270.132 196.752,273.212 191.265 C 276.012 186.277,267.858 180.707,263.999 184.971 " stroke="none" fill="#000000" fill-rule="evenodd"></path></g></svg>